# xmcd
#
# Track frame offsets:
#	150
#	33788
#	55413
#	68008
#	91480
#	103005
#	118452
#	132220
#	151757
#	170234
#	189175
#	202411
#	216013
#	236825
#	249794
#	267119
#	287474
#	309218
#
# Disc length: 4423
#
# Revision: 2
# Processed by: cddbd v1.5.1PL0 Copyright (c) Steve Scherf et al.
# Submitted via: EasyCDDAExtractor 5.0.7
# Normalized: r1:DSETVAR1
#
DISCID=fe114512
DTITLE=Various Artist - Funkin' on The 1 Cd1
DYEAR=2000
DGENRE=Funk
TTITLE0=Sound experience - Sha na na na boom boom
TTITLE1=The Meters - Good old funky music
TTITLE2=Maceo and All The Kings Men - Got to getcha
TTITLE3=Gil Scott-Heron and Brian Jackson - The bottle
TTITLE4=Bull and The Matadors - The funky judge
TTITLE5=The Parliament - Breakdown
TTITLE6=Ripple - A funky song
TTITLE7=Madhouse - Get some of this
TTITLE8=Chairman Of The Board - Finders keepers
TTITLE9=The 8Th Day - Good Book
TTITLE10=Ruth Copeland - I gotta thing for you daddy
TTITLE11=Nazty - It's summer time
TTITLE12=Poison - Get up and move your body
TTITLE13=B.T. Express - Do it
TTITLE14=Brass Construction - Movin'
TTITLE15=Billy Jones - We want peace
TTITLE16=Lee Dorsey - Yes we can
TTITLE17=Average White Band - School boy crush
EXTD=
EXTT0=
EXTT1=
EXTT2=
EXTT3=
EXTT4=
EXTT5=
EXTT6=
EXTT7=
EXTT8=
EXTT9=
EXTT10=
EXTT11=
EXTT12=
EXTT13=
EXTT14=
EXTT15=
EXTT16=
EXTT17=
PLAYORDER=
